 <svg  version="1.0" xmlns="http://www.w3.org/2000/svg"  width="300.000000pt" height="169.000000pt" viewBox="0 0 300.000000 169.000000"  preserveAspectRatio="xMidYMid meet">  <g transform="translate(0.000000,169.000000) scale(0.100000,-0.100000)" fill="#87c5f8" stroke="none"> <path d="M1203 1458 c-36 -40 -38 -54 -31 -175 4 -65 10 -197 13 -293 10 -309 14 -341 47 -373 l28 -28 177 4 c192 4 222 11 287 67 16 14 33 24 38 22 5 -1 7 2 3 8 -3 5 -2 10 4 10 6 0 22 20 36 43 19 33 25 58 25 101 0 64 -14 90 -83 157 -23 21 -38 39 -34 39 4 0 2 6 -5 14 -7 8 -17 11 -23 8 -5 -3 1 8 16 24 14 16 30 36 37 45 16 21 32 109 21 109 -5 0 -9 8 -9 18 0 11 -13 37 -29 59 -16 23 -27 44 -23 48 4 4 2 5 -3 3 -6 -2 -21 7 -34 19 -26 24 -107 65 -162 82 -19 6 -89 11 -155 11 -112 0 -122 -2 -141 -22z m77 -14 c0 -9 6 -14 13 -11 6 2 11 10 10 16 -4 15 89 14 106 -1 11 -10 14 -10 18 0 3 6 12 12 21 12 31 0 92 -26 107 -46 13 -16 14 -16 9 -1 -11 31 21 9 44 -31 12 -20 22 -31 22 -23 0 8 -8 24 -17 35 -16 18 -15 18 14 -2 41 -29 83 -79 100 -120 17 -40 14 -118 -4 -115 -7 2 -22 -12 -33 -30 l-22 -32 26 30 c14 17 26 25 26 19 0 -5 -16 -25 -35 -44 l-34 -33 69 -64 c39 -36 70 -70 70 -76 0 -6 -12 0 -27 14 l-28 24 24 -27 c13 -15 29 -26 35 -25 16 3 20 -109 5 -144 -29 -71 -166 -159 -246 -159 -36 0 -42 3 -37 18 5 15 4 15 -5 1 -16 -25 -252 -26 -274 -1 -13 14 -17 52 -22 174 -6 144 -5 157 12 168 16 10 16 11 -4 7 -13 -3 -23 -1 -23 4 0 5 5 9 11 9 6 0 7 5 2 13 -4 6 -8 44 -9 82 -1 39 -5 78 -9 88 -4 10 -3 17 4 17 6 0 11 5 11 11 0 5 -4 7 -10 4 -6 -4 -10 6 -10 22 -1 15 -2 62 -3 103 -3 62 0 80 17 103 23 31 76 39 76 11z"/> <path d="M1250 1425 c-8 -9 -8 -15 -2 -15 12 0 26 19 19 26 -2 2 -10 -2 -17 -11z"/> <path d="M1213 1414 c-15 -16 -16 -24 -4 -24 8 0 24 30 19 35 -2 2 -9 -3 -15 -11z"/> <path d="M1310 1416 c0 -2 7 -7 16 -10 8 -3 12 -2 9 4 -6 10 -25 14 -25 6z"/> <path d="M1355 1410 c3 -5 8 -10 11 -10 2 0 4 5 4 10 0 6 -5 10 -11 10 -5 0 -7 -4 -4 -10z"/> <path d="M1285 1390 c-3 -5 -1 -10 4 -10 6 0 11 5 11 10 0 6 -2 10 -4 10 -3 0 -8 -4 -11 -10z"/> <path d="M1318 1383 c7 -3 16 -2 19 1 4 3 -2 6 -13 5 -11 0 -14 -3 -6 -6z"/> <path d="M1350 1381 c0 -6 4 -12 8 -15 5 -3 9 1 9 9 0 8 -4 15 -9 15 -4 0 -8 -4 -8 -9z"/> <path d="M1396 1382 c-2 -4 -1 -14 5 -22 7 -12 9 -10 9 8 0 23 -5 28 -14 14z"/> <path d="M1440 1379 c0 -5 5 -7 10 -4 6 3 10 8 10 11 0 2 -4 4 -10 4 -5 0 -10 -5 -10 -11z"/> <path d="M1209 1369 c-6 -3 -3 -8 8 -11 10 -3 24 1 31 8 9 10 7 12 -9 11 -11 -1 -25 -4 -30 -8z"/> <path d="M1465 1360 c-3 -5 -1 -10 4 -10 6 0 11 5 11 10 0 6 -2 10 -4 10 -3 0 -8 -4 -11 -10z"/> <path d="M1270 1355 c0 -7 30 -13 34 -7 3 4 -4 9 -15 9 -10 1 -19 0 -19 -2z"/> <path d="M1643 1328 c-1 -11 1 -16 5 -12 4 5 11 12 15 15 5 3 2 9 -5 12 -9 3 -14 -3 -15 -15z"/> <path d="M1201 1324 c0 -11 3 -14 6 -6 3 7 2 16 -1 19 -3 4 -6 -2 -5 -13z"/> <path d="M1437 1325 c-4 -8 -1 -17 5 -21 7 -4 8 -3 4 4 -4 7 -2 12 3 12 6 0 11 5 11 10 0 15 -17 12 -23 -5z"/> <path d="M1266 1306 c3 -8 12 -17 20 -20 11 -4 12 -2 1 14 -14 23 -29 27 -21 6z"/> <path d="M1560 1305 c0 -5 5 -17 10 -25 5 -8 10 -10 10 -5 0 6 -5 17 -10 25 -5 8 -10 11 -10 5z"/> <path d="M1443 1292 l-43 -3 0 -58 c0 -68 12 -83 63 -78 35 4 36 3 39 -32 2 -20 5 6 6 57 1 51 4 97 7 101 7 12 -21 17 -72 13z m15 -24 c28 4 28 2 31 -46 l2 -50 -32 2 c-31 1 -32 2 -35 56 -2 30 -1 50 2 44 2 -6 17 -9 32 -6z"/> <path d="M1369 1262 c-3 -20 -2 -29 4 -23 5 5 7 19 5 32 -3 20 -5 19 -9 -9z"/> <path d="M1312 1271 c-11 -7 -11 -9 2 -14 10 -4 16 -1 16 8 0 17 -1 17 -18 6z"/> <path d="M1217 1231 c-17 -6 -17 -9 -4 -19 12 -10 16 -9 21 4 8 21 6 23 -17 15z"/> <path d="M1265 1220 c3 -5 8 -10 11 -10 2 0 4 5 4 10 0 6 -5 10 -11 10 -5 0 -7 -4 -4 -10z"/> <path d="M1370 1220 c-8 -6 -10 -10 -3 -10 12 0 12 -24 0 -36 -4 -4 -2 -13 4 -20 7 -9 7 -19 -1 -36 -11 -22 -10 -22 9 2 18 22 19 26 5 36 -10 8 -11 13 -4 16 7 2 10 16 8 31 -2 21 -6 24 -18 17z"/> <path d="M1271 1184 c0 -11 3 -14 6 -6 3 7 2 16 -1 19 -3 4 -6 -2 -5 -13z"/> <path d="M1227 1177 c-3 -8 0 -14 7 -14 7 0 13 6 13 14 0 7 -4 13 -8 13 -4 0 -9 -6 -12 -13z"/> <path d="M1328 1183 c7 -3 16 -2 19 1 4 3 -2 6 -13 5 -11 0 -14 -3 -6 -6z"/> <path d="M1570 1169 c0 -11 4 -18 10 -14 5 3 7 12 3 20 -7 21 -13 19 -13 -6z"/> <path d="M1299 1151 c7 -11 17 -21 24 -21 8 0 8 3 -1 9 -8 4 -13 12 -12 17 1 5 -4 10 -10 12 -9 3 -9 -1 -1 -17z"/> <path d="M1270 1140 c0 -5 5 -10 11 -10 5 0 7 5 4 10 -3 6 -8 10 -11 10 -2 0 -4 -4 -4 -10z"/> <path d="M1590 1141 c0 -6 4 -13 10 -16 6 -3 7 1 4 9 -7 18 -14 21 -14 7z"/> <path d="M1235 1120 c-3 -5 -3 -10 1 -10 4 0 -1 -10 -12 -22 -10 -12 -14 -18 -7 -15 6 4 13 1 16 -5 2 -8 8 -9 13 -4 5 5 4 11 -4 13 -6 3 -9 10 -5 16 8 13 13 37 8 37 -2 0 -7 -4 -10 -10z"/> <path d="M1530 1125 c0 -5 5 -17 10 -25 5 -8 10 -10 10 -5 0 6 -5 17 -10 25 -5 8 -10 11 -10 5z"/> <path d="M1300 1090 c-19 -16 -29 -30 -22 -30 6 0 12 6 12 13 0 8 3 8 8 2 4 -6 14 -10 22 -10 8 0 18 -3 21 -8 4 -5 10 -4 13 2 4 6 3 11 -3 11 -6 0 -8 8 -5 18 5 13 4 14 -4 3 -6 -8 -12 -10 -16 -3 -4 6 2 15 11 21 10 6 14 10 8 10 -5 0 -26 -13 -45 -29z"/> <path d="M1389 1110 c-6 -44 -3 -67 7 -59 6 5 14 6 17 2 4 -3 7 -2 7 4 0 6 -6 13 -14 16 -9 4 -12 14 -9 26 3 12 3 21 -1 21 -3 0 -7 -4 -7 -10z"/> <path d="M1450 1050 c0 -5 5 -10 11 -10 5 0 7 5 4 10 -3 6 -8 10 -11 10 -2 0 -4 -4 -4 -10z"/> <path d="M1499 1050 c-3 -20 -4 -25 -12 -37 -5 -9 -3 -11 6 -7 8 3 15 16 15 30 0 23 -7 34 -9 14z"/> <path d="M1630 1037 c0 -7 9 -13 20 -13 11 0 20 1 20 3 0 1 -9 7 -20 13 -15 8 -20 8 -20 -3z"/> <path d="M1387 1019 c7 -7 15 -10 18 -7 3 3 -2 9 -12 12 -14 6 -15 5 -6 -5z"/> <path d="M1357 1009 c7 -7 15 -10 18 -7 3 3 -2 9 -12 12 -14 6 -15 5 -6 -5z"/> <path d="M1445 1010 c3 -5 8 -10 11 -10 2 0 4 5 4 10 0 6 -5 10 -11 10 -5 0 -7 -4 -4 -10z"/> <path d="M1290 999 c0 -5 5 -7 10 -4 6 3 10 8 10 11 0 2 -4 4 -10 4 -5 0 -10 -5 -10 -11z"/> <path d="M1535 1000 c-3 -6 1 -7 9 -4 18 7 21 14 7 14 -6 0 -13 -4 -16 -10z"/> <path d="M1630 992 c0 -14 28 -23 36 -11 3 6 3 13 0 16 -3 4 -6 1 -6 -7 0 -10 -3 -10 -15 0 -9 7 -15 8 -15 2z"/> <path d="M1720 980 c0 -5 5 -10 11 -10 5 0 7 5 4 10 -3 6 -8 10 -11 10 -2 0 -4 -4 -4 -10z"/> <path d="M1255 970 c-3 -5 -1 -10 4 -10 6 0 11 5 11 10 0 6 -2 10 -4 10 -3 0 -8 -4 -11 -10z"/> <path d="M1490 959 c0 -5 5 -7 10 -4 6 3 10 8 10 11 0 2 -4 4 -10 4 -5 0 -10 -5 -10 -11z"/> <path d="M1535 960 c3 -5 8 -10 11 -10 2 0 4 5 4 10 0 6 -5 10 -11 10 -5 0 -7 -4 -4 -10z"/> <path d="M1673 955 c0 -8 4 -12 9 -9 5 3 6 10 3 15 -9 13 -12 11 -12 -6z"/> <path d="M1360 949 c0 -5 5 -7 10 -4 6 3 10 8 10 11 0 2 -4 4 -10 4 -5 0 -10 -5 -10 -11z"/> <path d="M1385 934 c6 -2 9 -33 7 -74 -4 -86 -3 -86 131 -82 l47 2 0 80 0 80 -61 0 c-33 0 -69 -5 -80 -10 -13 -7 -19 -7 -19 0 0 5 -8 10 -17 9 -10 0 -13 -2 -8 -5z m165 -76 l0 -60 -33 3 c-18 2 -38 -1 -46 -5 -7 -5 -17 -4 -23 2 -6 6 -16 8 -23 6 -8 -3 -12 10 -14 45 -2 61 11 71 87 69 l52 -1 0 -59z"/> <path d="M1285 920 c3 -5 8 -10 11 -10 2 0 4 5 4 10 0 6 -5 10 -11 10 -5 0 -7 -4 -4 -10z"/> <path d="M1355 900 c3 -5 8 -10 11 -10 2 0 4 5 4 10 0 6 -5 10 -11 10 -5 0 -7 -4 -4 -10z"/> <path d="M1254 882 c3 -6 -2 -12 -11 -14 -12 -2 -14 -6 -7 -11 7 -4 17 0 23 7 9 11 9 16 0 22 -7 4 -9 3 -5 -4z"/> <path d="M1760 886 c0 -2 7 -6 15 -10 8 -3 15 -1 15 4 0 6 -7 10 -15 10 -8 0 -15 -2 -15 -4z"/> <path d="M1335 870 c-3 -5 1 -10 10 -10 9 0 13 5 10 10 -3 6 -8 10 -10 10 -2 0 -7 -4 -10 -10z"/> <path d="M1691 877 c2 -1 13 -9 24 -17 19 -14 19 -14 6 3 -7 9 -18 17 -24 17 -6 0 -8 -1 -6 -3z"/> <path d="M1300 861 c0 -8 -7 -11 -17 -6 -15 5 -16 4 -5 -6 9 -10 15 -10 24 -1 6 6 9 15 5 19 -4 3 -7 1 -7 -6z"/> <path d="M1340 840 c-9 -6 -10 -10 -3 -10 6 0 15 5 18 10 8 12 4 12 -15 0z"/> <path d="M1740 835 c0 -8 2 -15 4 -15 2 0 6 7 10 15 3 8 1 15 -4 15 -6 0 -10 -7 -10 -15z"/> <path d="M1230 800 c8 -5 20 -10 25 -10 6 0 3 5 -5 10 -8 5 -19 10 -25 10 -5 0 -3 -5 5 -10z"/> <path d="M1704 792 c1 -17 19 -17 24 0 3 10 1 10 -6 -1 -9 -12 -11 -12 -14 0 -3 9 -5 10 -4 1z"/> <path d="M1644 762 c4 -7 2 -20 -6 -30 -12 -16 -11 -16 7 -2 11 8 21 15 23 16 1 1 -5 7 -15 15 -12 10 -15 10 -9 1z"/> <path d="M1690 743 c13 -18 25 -33 27 -33 8 0 -17 38 -33 51 -11 9 -9 2 6 -18z"/> <path d="M1766 753 c-6 -14 -5 -15 5 -6 7 7 10 15 7 18 -3 3 -9 -2 -12 -12z"/> <path d="M1295 750 c-3 -5 -1 -10 4 -10 6 0 11 5 11 10 0 6 -2 10 -4 10 -3 0 -8 -4 -11 -10z"/> <path d="M1550 739 c0 -5 5 -7 10 -4 6 3 10 8 10 11 0 2 -4 4 -10 4 -5 0 -10 -5 -10 -11z"/> <path d="M1727 733 c10 -3 10 -10 2 -26 -10 -21 -9 -21 5 -3 16 20 13 37 -7 35 -9 0 -9 -2 0 -6z"/> <path d="M1514 719 c-4 -8 -3 -9 4 -5 7 4 12 3 12 -2 0 -6 -7 -12 -15 -16 -8 -3 -15 -11 -14 -18 0 -10 2 -10 6 0 2 6 11 12 19 12 16 0 19 26 5 35 -5 3 -13 0 -17 -6z"/> <path d="M1340 712 c0 -17 21 -25 31 -13 5 6 6 9 3 6 -4 -3 -13 0 -21 6 -9 8 -13 8 -13 1z"/> <path d="M1295 690 c-3 -5 -1 -10 4 -10 6 0 11 5 11 10 0 6 -2 10 -4 10 -3 0 -8 -4 -11 -10z"/> <path d="M1466 683 c-6 -14 -5 -15 5 -6 7 7 10 15 7 18 -3 3 -9 -2 -12 -12z"/> <path d="M1596 685 c-3 -8 -1 -15 3 -15 5 0 11 7 15 15 3 8 1 15 -3 15 -5 0 -11 -7 -15 -15z"/> <path d="M1686 675 c-11 -8 -15 -15 -9 -15 6 0 16 7 23 15 16 19 11 19 -14 0z"/> <path d="M1460 650 c0 -5 5 -10 10 -10 6 0 10 5 10 10 0 6 -4 10 -10 10 -5 0 -10 -4 -10 -10z"/> <path d="M528 1449 c-62 -16 -62 -15 -59 -302 1 -144 7 -267 12 -273 5 -6 6 -14 2 -18 -4 -4 -8 -52 -9 -107 l-2 -99 36 -25 c47 -32 128 -35 163 -6 24 19 24 22 24 200 0 100 4 181 8 181 5 0 5 6 1 13 -8 13 23 -9 41 -29 15 -17 73 -34 93 -27 22 8 62 50 54 57 -3 3 0 6 6 6 7 0 12 6 12 14 0 8 3 17 8 19 10 7 9 -75 -2 -92 -6 -10 -6 -12 2 -7 9 5 12 -30 12 -137 0 -140 1 -144 24 -165 21 -17 34 -20 86 -17 101 7 99 1 101 315 2 437 2 450 -29 483 -22 23 -34 27 -79 27 -40 0 -59 -5 -75 -20 -12 -11 -27 -20 -32 -20 -6 0 -31 -38 -56 -85 -40 -77 -60 -102 -60 -75 0 5 -20 29 -45 53 -24 24 -42 47 -40 51 3 3 2 4 -1 2 -3 -3 -20 8 -38 24 -17 17 -35 30 -39 30 -5 0 -5 5 -2 10 3 6 3 10 -2 10 -4 1 -26 4 -48 9 -22 4 -52 4 -67 0z m574 -29 c17 -20 18 -51 18 -375 0 -336 -1 -354 -20 -376 -10 -13 -19 -19 -20 -13 0 5 6 16 13 24 6 8 0 4 -15 -8 -27 -24 -75 -27 -70 -4 1 6 -5 12 -13 12 -9 0 -12 -6 -8 -17 5 -16 3 -15 -15 2 -20 19 -21 31 -24 252 l-3 232 -36 -71 c-21 -38 -45 -78 -55 -89 -16 -18 -64 -23 -64 -6 0 4 -4 6 -9 3 -11 -7 -51 39 -82 94 -24 43 -46 54 -34 18 4 -13 9 -114 12 -225 6 -245 4 -253 -78 -253 -49 0 -109 24 -109 43 0 4 4 6 8 3 4 -2 13 -1 20 3 9 6 7 14 -8 34 -23 29 -23 46 3 65 9 7 17 18 17 23 0 6 -7 3 -16 -6 -19 -18 -27 -15 -19 7 4 9 20 19 37 24 18 5 32 17 34 27 1 9 -2 15 -7 11 -5 -3 -7 -10 -4 -15 4 -5 -2 -9 -12 -10 -10 0 -26 -2 -35 -4 -20 -4 -25 20 -6 31 7 5 8 3 3 -5 -5 -9 -2 -9 13 0 15 10 18 17 11 25 -6 7 -17 10 -25 7 -10 -4 -14 3 -14 26 0 23 5 31 18 32 16 0 16 1 -1 7 -16 7 -16 9 -3 27 11 14 15 16 16 6 0 -20 13 -5 17 20 3 19 2 19 -13 5 -8 -9 -19 -16 -24 -16 -12 0 -12 161 1 176 7 9 8 14 1 14 -16 0 -20 70 -5 86 8 8 9 15 3 19 -14 9 -9 76 6 82 8 3 21 -2 30 -12 9 -9 19 -13 22 -10 4 3 0 10 -8 15 -8 6 -10 10 -5 10 6 0 2 5 -8 11 -13 8 -22 7 -32 -1 -22 -18 -30 9 -9 30 19 19 84 35 84 20 0 -4 10 -7 22 -6 13 0 23 -4 23 -11 0 -6 4 -15 9 -20 5 -5 6 -3 2 5 -4 6 -3 12 3 12 13 0 129 -127 162 -179 19 -29 29 -38 29 -26 0 14 80 175 97 195 2 2 12 -1 23 -8 12 -7 21 -8 25 -2 11 18 23 10 34 -22 6 -17 14 -29 17 -25 3 3 1 14 -4 24 -5 10 -8 28 -7 40 l2 22 -28 -19 c-23 -17 -28 -18 -33 -5 -3 9 0 15 8 15 8 0 16 6 19 13 3 8 21 12 53 11 36 -1 53 -7 66 -24z"/> <path d="M1048 1425 c-6 -6 10 -86 19 -95 2 -3 2 13 -2 35 -4 22 -7 46 -8 53 0 14 -1 14 -9 7z"/> <path d="M530 1410 c-9 -6 -10 -10 -3 -10 6 0 15 5 18 10 8 12 4 12 -15 0z"/> <path d="M1080 1409 c0 -9 7 -22 15 -29 19 -16 19 0 0 26 -12 16 -14 16 -15 3z"/> <path d="M580 1402 c-14 -6 -16 -13 -12 -50 1 -7 7 -10 13 -6 8 5 8 9 -1 14 -9 6 -7 13 9 29 21 21 19 25 -9 13z"/> <path d="M923 1353 c4 -3 2 -12 -4 -19 -8 -9 -5 -11 11 -7 16 4 18 8 9 19 -6 8 -14 14 -17 14 -3 0 -2 -3 1 -7z"/> <path d="M978 1353 c7 -3 16 -2 19 1 4 3 -2 6 -13 5 -11 0 -14 -3 -6 -6z"/> <path d="M595 1339 c-4 -6 -5 -12 -2 -15 2 -3 7 2 10 11 7 17 1 20 -8 4z"/> <path d="M658 1343 c7 -3 16 -2 19 1 4 3 -2 6 -13 5 -11 0 -14 -3 -6 -6z"/> <path d="M530 1334 c0 -16 78 -56 92 -48 6 4 15 0 20 -7 8 -12 9 -11 5 1 -2 8 -10 15 -18 16 -26 1 -59 15 -54 24 3 4 -3 7 -12 6 -10 -2 -21 2 -25 8 -6 8 -8 8 -8 0z"/> <path d="M1007 1300 c-19 -22 -22 -35 -7 -25 10 6 34 45 28 45 -2 0 -11 -9 -21 -20z"/> <path d="M520 1295 c14 -7 27 -11 30 -9 6 7 -22 24 -40 23 -9 0 -5 -6 10 -14z"/> <path d="M695 1280 c3 -5 11 -10 16 -10 6 0 7 5 4 10 -3 6 -11 10 -16 10 -6 0 -7 -4 -4 -10z"/> <path d="M665 1270 c3 -5 8 -10 11 -10 2 0 4 5 4 10 0 6 -5 10 -11 10 -5 0 -7 -4 -4 -10z"/> <path d="M898 1270 c27 -11 30 -24 3 -17 -26 7 -42 -5 -31 -23 8 -13 10 -13 10 2 0 11 6 15 19 11 10 -3 22 1 26 7 8 14 -12 30 -35 29 -8 0 -5 -4 8 -9z"/> <path d="M511 1261 c-16 -10 -6 -31 15 -31 8 0 13 -4 9 -10 -3 -5 -13 -6 -22 -3 -15 6 -16 5 -3 -9 9 -10 19 -13 26 -7 6 5 13 7 16 4 2 -3 5 2 5 10 0 8 -9 17 -19 21 -12 3 -17 12 -14 20 6 16 6 17 -13 5z"/> <path d="M965 1260 c-3 -5 1 -10 10 -10 9 0 13 5 10 10 -3 6 -8 10 -10 10 -2 0 -7 -4 -10 -10z"/> <path d="M650 1244 c0 -8 -4 -13 -8 -10 -10 6 -22 -3 -42 -29 -14 -19 -14 -19 5 -4 11 9 28 19 38 22 15 6 25 37 12 37 -3 0 -5 -7 -5 -16z"/> <path d="M685 1252 c-2 -2 6 -13 17 -24 20 -20 48 -18 48 3 0 9 -4 9 -14 0 -11 -9 -16 -9 -21 0 -4 6 -1 15 6 20 10 6 7 8 -9 6 -13 -1 -25 -3 -27 -5z"/> <path d="M990 1225 c-10 -12 -10 -15 2 -15 8 0 15 7 15 15 0 8 -1 15 -2 15 -2 0 -8 -7 -15 -15z"/> <path d="M950 1220 c0 -5 5 -10 11 -10 5 0 7 5 4 10 -3 6 -8 10 -11 10 -2 0 -4 -4 -4 -10z"/> <path d="M664 1208 c1 -7 12 -14 24 -14 18 -1 20 1 10 13 -8 10 -13 11 -18 2 -6 -8 -9 -8 -13 0 -3 7 -5 7 -3 -1z"/> <path d="M751 1194 c0 -11 3 -14 6 -6 3 7 2 16 -1 19 -3 4 -6 -2 -5 -13z"/> <path d="M875 1194 c11 -8 19 -17 17 -20 -2 -2 -1 -10 1 -17 3 -6 5 -1 4 13 -1 25 -13 40 -32 40 -5 -1 -1 -7 10 -16z"/> <path d="M626 1192 c-7 -12 7 -28 24 -27 8 0 18 -4 22 -10 5 -6 8 -2 8 8 0 10 -6 17 -12 16 -7 -1 -20 -1 -28 0 -13 1 -13 2 0 11 9 6 10 10 3 10 -6 0 -14 -4 -17 -8z"/> <path d="M723 1185 c0 -8 4 -12 9 -9 5 3 6 10 3 15 -9 13 -12 11 -12 -6z"/> <path d="M914 1168 c-1 -15 3 -28 7 -28 5 0 9 9 9 19 0 11 8 21 18 23 12 3 10 5 -8 9 -22 5 -25 2 -26 -23z"/> <path d="M975 1190 c-3 -5 -1 -10 4 -10 6 0 11 5 11 10 0 6 -2 10 -4 10 -3 0 -8 -4 -11 -10z"/> <path d="M1000 1196 c0 -2 7 -6 15 -10 8 -3 15 -1 15 4 0 6 -7 10 -15 10 -8 0 -15 -2 -15 -4z"/> <path d="M850 1188 c0 -3 7 -19 15 -34 8 -16 15 -22 15 -14 -1 8 -7 24 -15 34 -8 11 -15 17 -15 14z"/> <path d="M570 1171 c0 -6 4 -12 8 -15 5 -3 9 1 9 9 0 8 -4 15 -9 15 -4 0 -8 -4 -8 -9z"/> <path d="M500 1149 c0 -5 5 -7 10 -4 6 3 10 8 10 11 0 2 -4 4 -10 4 -5 0 -10 -5 -10 -11z"/> <path d="M1102 1140 c0 -14 2 -19 5 -12 2 6 2 18 0 25 -3 6 -5 1 -5 -13z"/> <path d="M540 1139 c0 -5 9 -9 20 -9 11 0 20 2 20 4 0 2 -9 6 -20 9 -11 3 -20 1 -20 -4z"/> <path d="M637 1133 c-10 -9 -9 -23 1 -23 5 0 9 7 9 15 0 17 -1 18 -10 8z"/> <path d="M977 1133 c-4 -3 -7 -11 -7 -17 0 -6 5 -5 12 2 6 6 9 14 7 17 -3 3 -9 2 -12 -2z"/> <path d="M519 1130 c-7 -44 -8 -53 -1 -45 4 6 10 12 14 15 4 3 3 12 -2 20 -6 8 -10 13 -11 10z"/> <path d="M890 1110 c0 -11 2 -20 4 -20 2 0 6 9 9 20 3 11 1 20 -4 20 -5 0 -9 -9 -9 -20z"/> <path d="M580 1109 c0 -5 5 -7 10 -4 6 3 10 8 10 11 0 2 -4 4 -10 4 -5 0 -10 -5 -10 -11z"/> <path d="M730 1110 c-8 -5 -10 -10 -5 -10 6 0 17 5 25 10 8 5 11 10 5 10 -5 0 -17 -5 -25 -10z"/> <path d="M780 1105 c0 -8 4 -15 8 -15 5 0 9 7 9 15 0 8 -4 15 -9 15 -4 0 -8 -7 -8 -15z"/> <path d="M996 1097 c3 -10 9 -15 12 -12 3 3 0 11 -7 18 -10 9 -11 8 -5 -6z"/> <path d="M618 1093 c6 -2 18 -2 25 0 6 3 1 5 -13 5 -14 0 -19 -2 -12 -5z"/> <path d="M720 1086 c0 -2 8 -10 18 -17 15 -13 16 -12 3 4 -13 16 -21 21 -21 13z"/> <path d="M557 1061 c4 -16 8 -17 18 -8 9 9 10 14 1 19 -19 13 -24 9 -19 -11z"/> <path d="M510 1059 c-13 -9 -12 -10 3 -5 9 3 17 1 17 -5 0 -6 5 -7 10 -4 11 7 4 25 -8 25 -4 0 -14 -5 -22 -11z"/> <path d="M810 1060 c-9 -6 -10 -10 -3 -10 6 0 15 5 18 10 8 12 4 12 -15 0z"/> <path d="M635 1030 c-3 -5 -1 -10 4 -10 6 0 11 5 11 10 0 6 -2 10 -4 10 -3 0 -8 -4 -11 -10z"/> <path d="M1095 1020 c3 -5 8 -10 11 -10 2 0 4 5 4 10 0 6 -5 10 -11 10 -5 0 -7 -4 -4 -10z"/> <path d="M768 1013 c7 -3 16 -2 19 1 4 3 -2 6 -13 5 -11 0 -14 -3 -6 -6z"/> <path d="M570 995 c-14 -8 -20 -14 -15 -14 6 0 21 6 35 14 14 8 21 14 15 14 -5 0 -21 -6 -35 -14z"/> <path d="M603 973 c1 -17 4 -19 14 -11 15 12 18 22 4 14 -5 -4 -11 0 -14 6 -3 7 -4 3 -4 -9z"/> <path d="M1056 945 c-3 -8 -1 -15 4 -15 6 0 10 7 10 15 0 8 -2 15 -4 15 -2 0 -6 -7 -10 -15z"/> <path d="M580 931 c0 -15 -5 -21 -14 -18 -9 4 -12 0 -9 -13 5 -17 6 -17 24 1 15 15 17 24 10 37 -9 15 -10 14 -11 -7z"/> <path d="M623 933 c-15 -5 -17 -23 -4 -23 5 0 11 7 15 15 3 8 4 15 3 14 -1 0 -8 -3 -14 -6z"/> <path d="M500 914 c0 -8 5 -12 10 -9 6 4 8 11 5 16 -9 14 -15 11 -15 -7z"/> <path d="M980 916 c4 -4 16 -4 26 2 16 9 14 10 -8 9 -15 -1 -23 -6 -18 -11z"/> <path d="M1090 904 c0 -8 5 -12 10 -9 6 4 8 11 5 16 -9 14 -15 11 -15 -7z"/> <path d="M623 893 c-16 -6 -17 -33 -2 -33 5 0 7 5 4 10 -3 6 4 14 17 19 13 6 16 10 8 10 -8 -1 -21 -3 -27 -6z"/> <path d="M1002 868 c2 -6 11 -13 19 -16 12 -3 12 -2 0 6 -11 8 -11 10 0 15 10 4 8 6 -4 6 -10 1 -17 -4 -15 -11z"/> <path d="M1101 844 c0 -11 3 -14 6 -6 3 7 2 16 -1 19 -3 4 -6 -2 -5 -13z"/> <path d="M600 822 c0 -4 10 -9 22 -9 18 -2 20 0 8 7 -18 12 -30 13 -30 2z"/> <path d="M1026 815 c-3 -9 -11 -13 -17 -9 -8 4 -9 3 -5 -4 4 -7 1 -12 -8 -12 -9 0 -16 -7 -16 -15 0 -8 7 -15 15 -15 9 0 19 -10 24 -22 l8 -22 5 22 c3 12 3 21 -1 20 -3 -1 -14 2 -23 6 -15 7 -14 11 10 31 15 13 24 26 21 30 -4 3 -9 -1 -13 -10z"/> <path d="M550 803 c8 -2 22 -7 30 -9 13 -5 13 -6 0 -14 -8 -6 -10 -10 -4 -10 18 0 24 13 13 27 -6 7 -21 13 -33 12 -14 0 -16 -2 -6 -6z"/> <path d="M1095 770 c-3 -5 -1 -10 4 -10 6 0 11 5 11 10 0 6 -2 10 -4 10 -3 0 -8 -4 -11 -10z"/> <path d="M525 759 c-4 -6 -5 -12 -2 -15 2 -3 7 2 10 11 7 17 1 20 -8 4z"/> <path d="M615 760 c3 -5 8 -10 11 -10 2 0 4 5 4 10 0 6 -5 10 -11 10 -5 0 -7 -4 -4 -10z"/> <path d="M545 750 c-3 -5 -1 -10 4 -10 6 0 11 5 11 10 0 6 -2 10 -4 10 -3 0 -8 -4 -11 -10z"/> <path d="M643 746 c-4 -7 -15 -16 -23 -19 -8 -3 -4 -5 10 -4 18 1 26 7 26 19 0 22 -2 22 -13 4z"/> <path d="M1047 746 c-4 -10 -3 -15 3 -11 14 9 12 -18 -2 -35 -7 -8 -4 -7 6 2 15 14 17 22 9 39 -8 20 -10 21 -16 5z"/> <path d="M577 739 c7 -9 10 -19 6 -22 -3 -4 -1 -7 5 -7 17 0 15 16 -5 31 -16 12 -17 12 -6 -2z"/> <path d="M1094 741 c4 -5 0 -12 -6 -14 -8 -3 -6 -6 5 -6 9 -1 17 6 17 14 0 8 -5 15 -11 15 -5 0 -8 -4 -5 -9z"/> <path d="M982 714 c-7 -8 -8 -14 -3 -14 5 0 18 -3 28 -6 11 -4 14 -3 7 3 -6 4 -13 13 -15 20 -3 8 -8 7 -17 -3z"/> <path d="M616 665 c-13 -19 -13 -23 -2 -19 8 3 16 14 19 25 7 25 3 24 -17 -6z"/> <path d="M1030 670 c0 -5 5 -10 11 -10 5 0 7 5 4 10 -3 6 -8 10 -11 10 -2 0 -4 -4 -4 -10z"/> <path d="M566 647 c3 -10 9 -15 12 -12 3 3 0 11 -7 18 -10 9 -11 8 -5 -6z"/> <path d="M2058 1437 c-15 -14 -29 -23 -31 -21 -9 9 -92 -62 -119 -101 -19 -28 -28 -56 -31 -95 -4 -52 -7 -57 -63 -107 -36 -32 -55 -56 -48 -60 5 -5 31 -23 57 -42 l47 -34 0 -86 c0 -77 3 -91 26 -125 34 -50 80 -91 129 -115 48 -24 157 -43 204 -36 81 11 173 119 212 248 19 62 21 83 15 201 -6 115 -11 139 -36 193 -40 88 -147 192 -166 161 -4 -6 -3 -8 4 -4 6 3 13 3 16 -2 2 -4 -4 -9 -15 -9 -16 -2 -19 2 -13 19 5 16 3 20 -9 15 -8 -3 -18 0 -20 7 -3 8 -28 14 -69 15 -56 2 -68 -1 -90 -22z m48 -9 c-4 6 -3 12 3 12 5 0 12 -3 15 -8 2 -4 23 -7 46 -6 22 0 43 -3 46 -7 5 -9 -33 -22 -44 -15 -5 3 -18 -2 -28 -10 -10 -9 -14 -13 -8 -10 7 3 17 0 22 -7 12 -15 12 -56 0 -58 -4 -1 -11 -2 -15 -4 -5 -1 -25 -5 -46 -9 -20 -5 -40 -12 -43 -17 -2 -5 -5 -108 -4 -230 0 -135 -4 -227 -10 -234 -7 -9 -4 -20 10 -38 13 -17 17 -28 10 -32 -8 -5 -6 -12 4 -24 10 -11 12 -21 6 -31 -5 -8 -7 -17 -4 -21 2 -4 -2 -9 -10 -12 -8 -3 -26 5 -41 19 -14 13 -30 24 -34 24 -4 0 -27 23 -50 52 l-42 52 2 82 3 82 -47 44 -47 45 36 28 c41 33 68 79 61 106 -3 11 -1 16 4 13 5 -3 8 8 7 24 -2 27 40 107 51 96 2 -2 11 2 19 9 13 10 15 9 9 -5 -4 -10 -2 -18 4 -18 7 0 9 10 5 25 -4 14 -2 25 3 25 5 0 18 8 27 18 17 16 18 16 11 -2 -6 -15 -4 -17 10 -11 10 4 27 8 38 7 11 0 15 2 8 5 -7 2 -9 11 -6 20 4 11 2 14 -5 9 -8 -5 -10 -2 -6 9 5 13 9 13 22 3 12 -10 14 -10 8 0z m99 -38 c-13 21 27 9 50 -16 24 -26 49 -25 38 1 -4 11 -1 13 11 9 20 -8 20 -14 -1 -30 -15 -12 -16 -15 -3 -23 16 -11 33 -4 25 10 -14 22 24 7 39 -16 9 -14 12 -25 6 -25 -6 0 -13 7 -16 15 -4 8 -10 15 -15 15 -18 0 -8 -22 22 -50 29 -26 33 -59 6 -44 -8 5 -8 3 1 -7 9 -10 15 -10 24 -1 9 9 15 5 25 -19 15 -36 17 -85 4 -94 -6 -3 -8 -29 -5 -57 2 -30 -1 -57 -8 -65 -9 -11 -7 -15 10 -20 16 -4 21 -12 19 -32 -2 -21 -6 -27 -19 -23 -10 2 -15 9 -11 15 3 5 1 7 -5 4 -5 -4 -8 -17 -5 -30 3 -12 1 -18 -4 -12 -4 6 -15 11 -23 13 -12 2 -11 -1 2 -11 10 -8 14 -18 10 -23 -4 -4 1 -2 11 6 16 12 20 12 28 -1 5 -8 8 -18 8 -24 0 -5 -3 -4 -6 3 -2 6 -9 12 -14 12 -4 0 -6 -7 -3 -15 4 -9 -6 -26 -25 -42 -17 -15 -31 -31 -31 -36 0 -5 -9 -22 -21 -38 -11 -16 -18 -36 -15 -44 4 -10 -1 -15 -14 -15 -11 0 -20 -4 -20 -10 0 -5 -9 -10 -21 -10 -11 0 -17 -4 -14 -10 3 -6 -1 -7 -9 -4 -9 3 -16 1 -16 -6 0 -6 -5 -8 -12 -4 -7 5 -30 8 -50 7 -21 -1 -36 2 -33 7 3 4 -2 13 -10 20 -8 7 -12 16 -9 21 3 5 0 9 -5 9 -6 0 -12 -15 -12 -32 -2 -31 -2 -31 -6 -5 -3 16 3 38 15 55 10 15 21 33 24 41 3 11 7 10 21 -3 16 -16 17 -16 17 6 0 13 3 18 8 12 8 -12 42 -15 42 -3 0 3 9 9 20 12 20 5 21 12 19 239 0 128 1 240 3 248 1 8 -2 14 -9 13 -14 -3 -27 32 -18 47 3 5 4 10 1 10 -2 0 -13 3 -23 7 -15 6 -16 5 -5 -9 9 -11 10 -18 2 -23 -16 -10 -24 23 -10 40 10 12 10 15 -3 15 -8 0 -17 7 -20 15 -5 11 -1 12 19 5 17 -7 23 -7 19 0z m75 -10 c0 -5 -7 -7 -15 -4 -8 4 -15 8 -15 10 0 2 7 4 15 4 8 0 15 -4 15 -10z m-63 -255 c2 -88 4 -197 5 -243 3 -96 2 -97 -119 -93 l-31 1 1 245 c1 277 -8 254 92 251 l50 -1 2 -160z m221 -59 c-1 -14 -6 -22 -10 -20 -12 7 -10 44 2 44 5 0 9 -11 8 -24z m2 -76 c0 -5 -5 -10 -11 -10 -5 0 -7 5 -4 10 3 6 8 10 11 10 2 0 4 -4 4 -10z m-44 -205 c-11 -8 -22 -12 -25 -9 -6 6 19 24 34 24 6 -1 1 -7 -9 -15z m-305 -58 c-8 -8 -11 -4 -11 14 0 33 14 47 18 19 2 -12 -1 -27 -7 -33z m272 9 c-10 -13 -20 -20 -21 -15 -5 12 17 39 30 39 5 0 1 -11 -9 -24z"/> <path d="M1947 1249 c-15 -27 -13 -39 6 -39 5 0 7 6 4 13 -6 17 2 30 28 45 20 11 20 11 -1 9 -12 0 -28 -13 -37 -28z"/> <path d="M1996 931 c-3 -5 1 -14 9 -21 10 -9 15 -9 15 -1 0 6 -6 11 -12 11 -9 0 -8 4 2 10 9 6 10 10 3 10 -6 0 -14 -4 -17 -9z"/> <path d="M1963 803 c-17 -6 -17 -20 0 -26 8 -3 13 3 13 14 0 11 0 19 -1 18 0 0 -6 -3 -12 -6z"/> <path d="M2273 1244 c0 -7 8 -12 18 -11 9 1 15 6 12 12 -5 16 -30 15 -30 -1z"/> <path d="M2326 1188 c3 -5 10 -6 15 -3 13 9 11 12 -6 12 -8 0 -12 -4 -9 -9z"/> <path d="M2313 884 c-8 -21 21 -51 32 -33 5 7 4 10 -2 6 -6 -4 -14 0 -17 9 -9 23 -8 27 10 20 8 -3 12 -2 9 4 -9 15 -25 12 -32 -6z"/> <path d="M2230 736 c0 -2 7 -9 15 -16 13 -11 14 -10 9 4 -5 14 -24 23 -24 12z"/> <path d="M2243 685 c0 -7 6 -11 14 -8 7 3 13 6 13 8 0 2 -6 5 -13 8 -8 3 -14 -1 -14 -8z"/> <path d="M930 503 c-57 -7 -60 -15 -60 -132 0 -117 6 -137 39 -126 17 5 21 14 21 50 0 24 -4 47 -10 50 -5 3 -9 14 -9 23 1 15 2 15 6 0 2 -10 13 -18 24 -18 14 0 26 -16 44 -55 13 -30 27 -55 30 -55 3 0 3 5 -1 12 -5 8 -2 9 9 5 10 -4 17 -1 18 6 0 7 4 3 9 -8 7 -15 9 -16 9 -4 1 9 -10 37 -24 61 -25 45 -25 45 -5 63 20 18 26 58 14 90 -6 16 -56 46 -71 43 -4 0 -24 -3 -43 -5z m33 -41 c29 -3 37 -8 33 -19 -3 -8 -6 -26 -6 -39 0 -22 -4 -25 -27 -22 -24 3 -29 8 -34 43 -5 39 -6 40 -17 15 l-12 -25 5 28 c4 19 2 26 -5 22 -5 -3 -10 -1 -10 5 0 8 6 9 18 4 9 -4 34 -9 55 -12z m67 -168 c0 -8 -19 -13 -24 -6 -3 5 1 9 9 9 8 0 15 -2 15 -3z"/> <path d="M492 488 c-17 -17 -16 -222 1 -235 6 -5 41 -7 77 -4 l65 6 5 85 c3 47 3 102 1 123 -3 32 -6 38 -25 35 -19 -3 -22 -12 -30 -95 -8 -91 -9 -93 -34 -93 l-25 0 6 83 c5 59 3 87 -5 95 -15 15 -21 15 -36 0z m28 -38 c0 -5 -2 -10 -4 -10 -3 0 -8 5 -11 10 -3 6 -1 10 4 10 6 0 11 -4 11 -10z m98 -74 c-1 -14 -5 -23 -9 -20 -4 2 -6 12 -4 22 5 23 4 22 10 22 3 0 4 -11 3 -24z m-108 -16 c0 -5 -2 -10 -4 -10 -3 0 -8 5 -11 10 -3 6 -1 10 4 10 6 0 11 -4 11 -10z m106 -69 c-4 -5 -13 -8 -21 -5 -11 5 -12 9 -2 19 13 15 33 3 23 -14z m-94 -23 c-6 -6 -12 -6 -17 3 -5 8 -4 10 3 5 7 -4 12 0 13 11 0 12 2 13 6 5 3 -8 1 -18 -5 -24z m54 5 c-10 -11 -19 -7 -22 10 -2 15 0 16 12 6 8 -6 12 -14 10 -16z"/> <path d="M677 494 c-17 -18 -6 -43 23 -49 l30 -7 0 -99 c0 -92 1 -99 20 -99 23 0 26 20 8 39 -11 10 -10 11 4 6 9 -4 18 -14 20 -23 2 -10 4 28 4 83 1 91 2 100 20 101 10 1 25 2 32 3 8 1 12 10 10 24 -3 20 -9 22 -83 25 -45 1 -84 0 -88 -4z m103 -35 c0 -5 -13 -8 -30 -7 -33 2 -36 8 -18 26 12 12 48 -1 48 -19z m-16 -47 c3 -5 -1 -9 -9 -9 -8 0 -12 4 -9 9 3 4 7 8 9 8 2 0 6 -4 9 -8z m6 -62 c0 -5 -2 -10 -4 -10 -3 0 -8 5 -11 10 -3 6 -1 10 4 10 6 0 11 -4 11 -10z m0 -34 c0 -2 -7 -7 -16 -10 -8 -3 -12 -2 -9 4 6 10 25 14 25 6z"/> <path d="M1087 493 c-3 -5 -6 -61 -6 -126 l0 -117 74 0 c68 0 75 2 75 20 0 17 -7 20 -45 20 -40 0 -45 2 -45 23 0 13 -5 28 -12 35 -9 9 1 12 46 12 54 0 57 1 54 22 -3 20 -8 22 -50 19 -46 -2 -48 -1 -48 23 0 25 3 26 51 26 47 0 50 2 47 23 -3 20 -9 22 -70 25 -36 2 -69 -1 -71 -5z m36 -28 c-3 -9 -8 -14 -10 -11 -3 3 -2 9 2 15 9 16 15 13 8 -4z m2 -185 c3 -5 1 -10 -4 -10 -6 0 -11 5 -11 10 0 6 2 10 4 10 3 0 8 -4 11 -10z"/> <path d="M1285 472 c-22 -22 -25 -33 -25 -101 0 -72 2 -79 28 -104 35 -33 72 -34 101 -3 30 32 26 90 -7 94 -31 5 -39 -23 -17 -61 10 -16 13 -27 7 -23 -6 3 -15 -1 -20 -10 -6 -11 -11 -13 -16 -5 -9 14 2 33 15 26 5 -4 9 -2 9 3 0 5 -9 12 -20 15 -17 4 -20 14 -20 70 0 43 -4 67 -12 71 -7 3 -1 3 15 0 16 -4 27 -2 27 5 0 6 -5 11 -12 11 -6 0 -9 3 -6 6 8 8 48 -14 48 -26 0 -5 -7 -7 -15 -4 -10 4 -15 0 -15 -13 0 -27 6 -31 35 -25 53 10 16 93 -44 97 -22 1 -39 -6 -56 -23z m7 -74 c-6 -6 -9 0 -9 18 0 23 1 24 9 10 7 -12 7 -21 0 -28z m0 -63 c-3 -23 1 -35 13 -38 12 -4 11 -5 -2 -3 -14 1 -19 12 -21 46 -2 25 0 41 5 37 4 -5 6 -23 5 -42z"/> <path d="M1445 408 c-10 -132 -6 -152 28 -156 27 -3 27 -2 27 52 l0 56 40 0 40 0 0 -55 c0 -51 2 -55 24 -55 32 0 36 14 36 136 0 88 -3 106 -16 111 -22 8 -44 -22 -44 -59 0 -26 -3 -28 -38 -28 l-39 0 1 43 c1 38 -1 42 -26 45 l-26 3 -7 -93z m48 -32 c-4 -6 -10 -29 -14 -51 -5 -31 -7 -22 -8 40 -1 77 0 79 14 51 8 -15 12 -33 8 -40z m124 -11 c-2 -75 -17 -108 -17 -37 0 21 -5 43 -11 49 -9 9 -8 16 5 28 9 9 16 21 16 26 0 5 2 9 4 9 2 0 3 -34 3 -75z"/> <path d="M1670 476 c0 -33 20 -44 37 -21 11 16 15 17 26 5 8 -9 8 -11 0 -6 -6 3 -14 2 -18 -4 -3 -5 -3 -10 2 -10 4 0 6 -45 5 -100 -4 -96 -3 -100 17 -100 23 0 28 19 9 38 -9 9 -9 12 1 12 7 0 16 -10 19 -22 4 -13 9 21 12 77 5 96 6 100 28 101 34 2 48 19 32 39 -9 11 -32 15 -91 15 -77 0 -79 -1 -79 -24z m100 -17 c0 -5 -4 -9 -10 -9 -5 0 -10 7 -10 16 0 8 5 12 10 9 6 -3 10 -10 10 -16z m-12 -114 c-1 -19 -7 -36 -15 -39 -9 -4 -11 -2 -6 7 4 6 8 20 9 30 3 31 4 37 9 37 2 0 4 -16 3 -35z"/> </g> </svg> 